<svg width="204" height="231" viewBox="0 0 204 231" fill="none" xmlns="http://www.w3.org/2000/svg">
<path d="M195.199 88.1121L186.609 65.2572L202.339 84.4174L195.199 88.1121ZM198.473 117.231L192.237 116.414L154.823 80.0951L194.177 89.4147L198.473 117.231ZM177.233 163.178L170.953 152.059L163.976 115.195L191.008 117.409L177.233 163.178ZM150.883 189.313L136.871 188.449L167.694 155.86L150.883 189.313ZM124.547 228.143L111.972 206.555L123.125 163.628L134.827 188.958L124.547 228.143ZM72.0546 159.034L79.2235 181.131L70.603 187.596L72.0546 159.034ZM67.8925 93.7252H96.9087L107.514 110.257L104.448 122.146L85.0741 108.634L67.8925 93.7252ZM19.4433 92.991L18.5546 90.0542L39.4836 87.8279L63.0935 93.0265L28.3155 97.6567L19.4433 92.991ZM10.3341 78.9938L16.1699 76.3767L21.9465 79.2899L17.3844 88.7042L9.32686 83.9674L10.3341 78.9938ZM79.3271 16.8236L93.2946 19.3696V25.0656L82.2599 25.7643L79.3271 16.8236ZM84.8667 3.75009L91.2802 11.9092C91.295 11.921 91.3098 11.9329 91.3247 11.9566L95.0868 15.7697L93.6057 18.2802L79.2975 15.6749L84.8667 3.75009ZM113.483 1.45275L119.482 16.7289L101.589 8.20266L113.483 1.45275ZM156.067 44.9127L124.799 29.3287L162.51 41.6206L156.067 44.9127ZM183.365 61.7638L153.06 78.2715L141.137 61.7638L156.215 46.3456L183.365 61.7638ZM184.194 62.6519L193.763 88.1595L154.452 78.8636L184.194 62.6519ZM163.413 114.034L141.181 100.499L153.001 80.0833L190.267 116.237L163.413 114.034ZM142.114 102.465L162.51 114.875L168.864 148.471L142.114 102.465ZM127.865 139.068L134.219 184.458L123.644 161.556L127.865 139.068ZM122.651 159.424L106.255 124.526L127.214 135.077L122.651 159.424ZM82.7931 156.298L95.9015 206.638L80.7194 181.202L82.7931 156.298ZM81.7563 152.189L79.6086 177.862L72.2619 155.315L83.3115 133.573L81.7563 152.189ZM122 161.982L97.9603 209.137L83.3559 152.994L122 161.982ZM120.578 160.49L83.1634 151.81L84.8667 131.442L120.578 160.49ZM104.285 123.508L121.126 159.353L85.2222 130.151L97.3234 118.652L104.285 123.508ZM140.455 102.251L168.79 150.981L128.798 134.521L140.455 102.251ZM108.847 110.6L139.255 101.576L127.554 133.94L105.662 122.916L108.847 110.6ZM137.848 100.807L108.58 109.487L98.612 93.9502L137.848 100.807ZM126.162 76.7557L139.122 99.8949L98.9675 92.8726L126.162 76.7557ZM68.8997 79.6096H99.797L66.2484 92.5765L41.8683 87.2003L68.8997 79.6096ZM23.398 79.3846L46.8154 62.5809L64.6487 58.9454C64.6635 58.9454 64.6635 58.9336 64.6783 58.9336H64.6931L74.6318 56.2928L68.2035 78.6386L39.3799 86.7266L18.7767 88.9055L23.398 79.3846ZM22.7315 78.3544L17.5474 75.7491L41.2906 65.0558L22.7315 78.3544ZM70.8252 42.8404L54.4138 46.2627L77.6386 28.5945L70.8252 42.8404ZM112.594 37.4996L103.396 44.3324L94.9091 29.9682L119.526 19.0973L112.594 37.4996ZM133.583 44.8772L114.046 37.4996L117.927 27.1971L153.608 45.0074L133.583 44.8772ZM103.5 79.2307C103.515 79.207 103.515 79.1833 103.515 79.1596C103.515 79.1478 103.53 79.1359 103.53 79.1122C103.53 79.0649 103.53 79.0057 103.515 78.9465L99.8266 63.5282L125.199 75.9504L98.6268 91.7002L103.5 79.2307ZM98.2417 62.8177L102.004 78.4965H69.6551L76.0834 56.1981L98.2417 62.8177ZM98.775 61.7875L77.3868 55.4047L103.322 45.8127L130.99 45.9785L98.775 61.7875ZM113.335 38.4707L130.265 44.8535L104.937 44.7114L113.335 38.4707ZM63.9377 51.331L53.9843 47.5061L71.4029 43.8588L100.464 45.6469L75.565 54.8599L63.9377 51.331ZM64.782 57.7375L62.7528 55.0731L64.0414 52.5626L73.5061 55.4283L64.782 57.7375ZM139.759 61.373L126.28 75.1689L100.167 62.4033L133.612 45.9903L154.66 46.1206L139.759 61.373ZM140.322 99.3383L127.258 75.986L140.233 62.6993L152.068 79.0767L140.322 99.3383ZM100.612 9.0316L119.289 17.9367L94.6869 28.7958V19.0499L100.612 9.0316ZM93.2946 26.1906V29.7432C93.2946 29.7432 93.2946 29.755 93.2946 29.7668C93.2946 29.7905 93.2946 29.8142 93.3094 29.8379C93.3094 29.8497 93.3094 29.8734 93.3242 29.8853C93.3242 29.909 93.3391 29.9326 93.3539 29.9445C93.3539 29.9445 93.3539 29.9563 93.3687 29.9682L102.034 44.6285L72.3212 42.8048L79.8752 27.0314L93.2946 26.1906ZM52.3994 48.1337L62.7676 52.1244L61.3457 54.9191C61.2716 55.0731 61.2864 55.2626 61.4049 55.4165L63.3897 58.0454L47.4967 61.2901L52.3994 48.1337ZM69.3588 92.6002L101.708 80.107L96.8198 92.6002H69.3588ZM85.2815 110.245L96.2718 117.918L85 128.623L85.2815 110.245ZM110.654 206.224L99.0119 210.013L120.711 167.441L110.654 206.224ZM128.798 135.776L169.234 152.402L136.041 187.478L128.798 135.776ZM203.894 84.2753L185.172 61.4559C185.157 61.4559 185.157 61.4441 185.142 61.4441C185.113 61.3967 185.053 61.3612 185.009 61.3256C184.994 61.3256 184.994 61.3138 184.979 61.3138L157.326 45.5995L164.391 41.9759C164.613 41.8693 164.746 41.668 164.717 41.4548C164.702 41.2535 164.524 41.0759 164.272 40.993L118.356 26.0248L121.348 18.1025C121.363 18.0552 121.378 18.0078 121.378 17.9604C121.378 17.9367 121.378 17.9249 121.378 17.9131C121.363 17.8775 121.363 17.8302 121.348 17.7946V17.7828L114.52 0.386979C114.446 0.221193 114.283 0.0909293 114.075 0.0317203C113.868 -0.0274917 113.646 -0.00380477 113.453 0.102772L99.9303 7.7882C99.9155 7.7882 99.9155 7.7882 99.9155 7.7882C99.871 7.81188 99.8414 7.8474 99.797 7.87109C99.7822 7.88293 99.7822 7.89477 99.7673 7.90661C99.7525 7.91846 99.7377 7.94214 99.7229 7.95398C99.7081 7.96582 99.7081 7.97766 99.7081 7.98951L99.6933 8.00135L95.7534 14.6565L92.4355 11.2816L85.2815 2.21064C85.163 2.02117 84.8964 1.93828 84.6446 1.96196C84.378 1.98564 84.141 2.1159 84.0669 2.31722L77.7275 15.8762C77.7275 15.8881 77.7275 15.8881 77.7127 15.8999C77.7127 15.9118 77.6979 15.9355 77.6979 15.9473C77.683 15.9828 77.683 16.0065 77.683 16.0302C77.683 16.042 77.683 16.042 77.683 16.0539C77.683 16.1012 77.683 16.1605 77.6979 16.2078V16.2197L80.8528 25.8472L79.3271 25.9537H79.3123C79.1642 25.9537 79.0309 26.0011 78.9272 26.084C78.9272 26.084 78.9124 26.084 78.9124 26.0958L51.4959 46.9377C51.4959 46.9495 51.4811 46.9614 51.4663 46.9732C51.4514 46.985 51.4366 46.9969 51.4218 47.0087C51.407 47.0324 51.3774 47.0561 51.3626 47.0916C51.3478 47.1153 51.333 47.1271 51.333 47.139C51.3181 47.1508 51.3181 47.1627 51.3033 47.1745L45.897 61.6927L9.37129 78.1649C9.19355 78.2478 9.06024 78.3899 9.03062 78.5557L7.90493 84.1214C7.86049 84.3345 7.96418 84.5477 8.17154 84.6661L17.0882 89.9121L18.1695 93.4647C18.2139 93.6068 18.3028 93.7252 18.4509 93.7963L27.7823 98.7107C27.9304 98.7817 28.1081 98.8172 28.2859 98.7936L66.0558 93.7489L83.904 109.25L83.5781 130.056L70.8993 155.078C70.8696 155.138 70.8548 155.185 70.8548 155.244C70.8548 155.256 70.8548 155.256 70.8548 155.256L69.1515 188.899C69.1367 189.124 69.2996 189.337 69.5514 189.432C69.818 189.515 70.0994 189.479 70.3216 189.337L79.7863 182.232L97.1309 211.268C97.1309 211.28 97.1457 211.28 97.1457 211.292C97.1605 211.304 97.1605 211.316 97.1753 211.316C97.2049 211.363 97.2345 211.41 97.279 211.446H97.2938C97.3382 211.482 97.3975 211.505 97.4567 211.529C97.4567 211.529 97.4715 211.541 97.4863 211.541C97.5456 211.564 97.6048 211.576 97.6641 211.576C97.6789 211.576 97.6789 211.588 97.6937 211.588C97.7085 211.588 97.7381 211.588 97.753 211.588C97.7974 211.588 97.8566 211.576 97.9307 211.564C97.9455 211.564 97.9603 211.564 97.9751 211.553C97.9751 211.553 97.9899 211.553 98.0048 211.541L110.891 207.349L124.177 230.109C124.296 230.31 124.533 230.44 124.814 230.44C124.844 230.44 124.873 230.44 124.888 230.44C125.184 230.405 125.436 230.227 125.495 229.99L136.101 189.515L151.283 190.462C151.594 190.486 151.86 190.332 151.979 190.107L170.33 153.622L176.788 165.097C176.922 165.322 177.203 165.452 177.499 165.428C177.796 165.405 178.033 165.227 178.107 164.99L192.4 117.563L199.154 118.451C199.376 118.475 199.584 118.416 199.747 118.297C199.91 118.191 199.984 118.001 199.969 117.824L195.54 89.2608L203.687 85.0569C203.849 84.974 203.953 84.8437 203.983 84.6898C204.027 84.5595 203.983 84.4056 203.894 84.2753Z" fill="#FF007A"/>
<path d="M187.305 88.1121L178.714 65.2572L194.459 84.4174L187.305 88.1121ZM190.593 117.231L184.342 116.414L146.928 80.0951L186.283 89.4147L190.593 117.231ZM169.338 163.178L163.058 152.059L156.081 115.195L183.128 117.409L169.338 163.178ZM142.988 189.313L128.976 188.449L159.814 155.86L142.988 189.313ZM116.667 228.143L104.092 206.555L115.231 163.628L126.947 188.958L116.667 228.143ZM64.1598 159.034L71.3434 181.131L62.723 187.596L64.1598 159.034ZM59.9977 93.7252H89.0139L99.6339 110.257L96.553 122.146L77.1793 108.634L59.9977 93.7252ZM11.5633 92.991L10.6597 90.0542L31.6035 87.8279L55.1986 93.0265L20.4207 97.6567L11.5633 92.991ZM2.45404 78.9938L8.28986 76.3767L14.0516 79.2899L9.48962 88.7042L1.44684 83.9674L2.45404 78.9938ZM71.4323 16.8236L85.4146 19.3696V25.0656L74.365 25.7643L71.4323 16.8236ZM76.9867 3.75009L83.3854 11.9092C83.4002 11.921 83.415 11.9329 83.4298 11.9566L87.2068 15.7697L85.7108 18.2802L71.4027 15.6749L76.9867 3.75009ZM105.588 1.45275L111.602 16.7289L93.6944 8.20266L105.588 1.45275ZM148.172 44.9127L116.904 29.3287L154.63 41.6206L148.172 44.9127ZM175.47 61.7638L145.165 78.2715L133.242 61.7638L148.32 46.3456L175.47 61.7638ZM176.314 62.6519L185.883 88.1595L146.557 78.8636L176.314 62.6519ZM155.519 114.034L133.286 100.499L145.121 80.0833L182.372 116.237L155.519 114.034ZM134.234 102.465L154.63 114.875L160.984 148.471L134.234 102.465ZM119.985 139.068L126.339 184.458L115.749 161.556L119.985 139.068ZM114.757 159.424L98.3601 124.526L119.319 135.077L114.757 159.424ZM74.8983 156.298L88.0067 206.638L72.8246 181.202L74.8983 156.298ZM73.8614 152.189L71.7137 177.862L64.3819 155.315L75.4167 133.573L73.8614 152.189ZM114.105 161.982L90.0803 209.137L75.4611 152.994L114.105 161.982ZM112.698 160.49L75.2834 151.81L76.9867 131.442L112.698 160.49ZM96.3901 123.508L113.246 159.353L77.3274 130.151L89.4434 118.652L96.3901 123.508ZM132.575 102.251L160.91 150.981L120.904 134.521L132.575 102.251ZM100.952 110.6L131.375 101.576L119.659 133.94L97.7676 122.916L100.952 110.6ZM129.954 100.807L100.7 109.487L90.7172 93.9502L129.954 100.807ZM118.282 76.7557L131.227 99.8949L91.0875 92.8726L118.282 76.7557ZM61.0197 79.6096H91.9021L58.3535 92.5765L33.9734 87.2003L61.0197 79.6096ZM15.5032 79.3846L38.9354 62.5809L56.7539 58.9454C56.7687 58.9454 56.7687 58.9336 56.7835 58.9336H56.7983L66.7518 56.2928L60.3087 78.6386L31.4999 86.7266L10.8819 88.9055L15.5032 79.3846ZM14.8367 78.3544L9.65254 75.7491L33.3958 65.0558L14.8367 78.3544ZM62.9304 42.8404L46.519 46.2627L69.7438 28.5945L62.9304 42.8404ZM104.714 37.4996L95.5014 44.3324L87.0143 29.9682L111.646 19.0973L104.714 37.4996ZM125.703 44.8772L106.151 37.4996L110.032 27.1971L145.728 45.0074L125.703 44.8772ZM95.6199 79.2307C95.6347 79.207 95.6347 79.1833 95.6347 79.1596C95.6347 79.1478 95.6495 79.1359 95.6495 79.1122C95.6495 79.0649 95.6495 79.0057 95.6347 78.9465L91.9318 63.5282L117.319 75.9504L90.732 91.7002L95.6199 79.2307ZM90.3469 62.8177L94.1091 78.4965H61.7603L68.1885 56.1981L90.3469 62.8177ZM90.8801 61.7875L69.5068 55.4047L95.4273 45.8127L123.096 45.9785L90.8801 61.7875ZM105.44 38.4707L122.385 44.8535L97.0418 44.7114L105.44 38.4707ZM56.0429 51.331L46.0894 47.5061L63.508 43.8588L92.5687 45.6469L67.6701 54.8599L56.0429 51.331ZM56.8872 57.7375L54.8728 55.0731L56.1466 52.5626L65.6261 55.4283L56.8872 57.7375ZM131.864 61.373L118.4 75.1689L92.2873 62.4033L125.732 45.9903L146.78 46.1206L131.864 61.373ZM132.427 99.3383L119.363 75.986L132.338 62.6993L144.173 79.0767L132.427 99.3383ZM92.7316 9.0316L111.394 17.9367L86.7921 28.7958V19.0499L92.7316 9.0316ZM85.4146 26.1906V29.7432C85.4146 29.7432 85.4146 29.755 85.4146 29.7668C85.4146 29.7905 85.4146 29.8142 85.4294 29.8379C85.4294 29.8497 85.4294 29.8734 85.4442 29.8853C85.4442 29.909 85.459 29.9326 85.4739 29.9445C85.4739 29.9445 85.4739 29.9563 85.4887 29.9682L94.1387 44.6285L64.4412 42.8048L71.9804 27.0314L85.4146 26.1906ZM44.5194 48.1337L54.8876 52.1244L53.4509 54.9191C53.3768 55.0731 53.3916 55.2626 53.5101 55.4165L55.4949 58.0454L39.6019 61.2901L44.5194 48.1337ZM61.464 92.6002L93.8129 80.107L88.9398 92.6002H61.464ZM77.3866 110.245L88.3918 117.918L77.1052 128.623L77.3866 110.245ZM102.759 206.224L91.1319 210.013L112.816 167.441L102.759 206.224ZM120.904 135.776L161.34 152.402L128.146 187.478L120.904 135.776ZM195.999 84.2753L177.277 61.4559C177.262 61.4559 177.262 61.4441 177.247 61.4441C177.218 61.3967 177.159 61.3612 177.114 61.3256C177.099 61.3256 177.099 61.3138 177.084 61.3138L149.431 45.5995L156.511 41.9759C156.718 41.8693 156.852 41.668 156.822 41.4548C156.807 41.2535 156.629 41.0759 156.392 40.993L110.476 26.0248L113.453 18.1025C113.468 18.0552 113.483 18.0078 113.483 17.9604C113.483 17.9367 113.483 17.9249 113.483 17.9131C113.468 17.8775 113.468 17.8302 113.453 17.7946V17.7828L106.625 0.386979C106.551 0.221193 106.403 0.0909293 106.181 0.0317203C105.988 -0.0274917 105.751 -0.00380477 105.559 0.102772L92.0355 7.7882C92.0206 7.7882 92.0206 7.7882 92.0206 7.7882C91.9762 7.81188 91.9466 7.8474 91.9021 7.87109C91.8873 7.88293 91.8873 7.89477 91.8725 7.90661C91.8577 7.91846 91.8429 7.94214 91.8281 7.95398C91.8133 7.96582 91.8133 7.97766 91.8133 7.98951L91.7985 8.00135L87.8585 14.6565L84.5407 11.2816L77.4015 2.21064C77.2681 2.02117 77.0163 1.93828 76.7497 1.96196C76.4831 1.98564 76.2609 2.1159 76.1721 2.31722L69.8327 15.8762C69.8327 15.8881 69.8327 15.8881 69.8178 15.8999C69.8178 15.9118 69.803 15.9355 69.803 15.9473C69.7882 15.9828 69.7882 16.0065 69.7882 16.0302C69.7882 16.042 69.7882 16.042 69.7882 16.0539C69.7882 16.1012 69.7882 16.1605 69.803 16.2078V16.2197L72.9727 25.8472L71.4323 25.9537H71.4175C71.2842 25.9537 71.1361 26.0011 71.0324 26.084C71.0324 26.084 71.0176 26.084 71.0176 26.0958L43.6011 46.9377C43.6011 46.9495 43.5862 46.9614 43.5714 46.9732C43.5566 46.985 43.5418 46.9969 43.527 47.0087C43.527 47.0324 43.4974 47.0561 43.4826 47.0916C43.4677 47.1153 43.4529 47.1271 43.4529 47.139C43.4381 47.1508 43.4381 47.1627 43.4233 47.1745L38.0022 61.6927L1.49127 78.1649C1.29872 78.2478 1.16542 78.3899 1.13579 78.5557L0.0101006 84.1214C-0.0343356 84.3345 0.0693466 84.5477 0.291524 84.6661L9.19338 89.9121L10.2746 93.4647C10.3191 93.6068 10.4228 93.7252 10.5709 93.7963L19.8875 98.7107C20.0356 98.7817 20.2281 98.8172 20.3911 98.7936L58.1758 93.7489L76.0091 109.25L75.6981 130.056L63.0044 155.078C62.9748 155.138 62.96 155.185 62.96 155.244C62.96 155.256 62.96 155.256 62.96 155.256L61.2567 188.899C61.2418 189.124 61.4048 189.337 61.6714 189.432C61.9232 189.515 62.2194 189.479 62.4268 189.337L71.9063 182.232L89.236 211.268C89.236 211.28 89.2508 211.28 89.2508 211.292C89.2657 211.304 89.2657 211.316 89.2805 211.316C89.3101 211.363 89.3545 211.41 89.399 211.446H89.4138C89.4582 211.482 89.5175 211.505 89.5619 211.529C89.5619 211.529 89.5767 211.541 89.5915 211.541C89.6508 211.564 89.71 211.576 89.7693 211.576C89.7841 211.576 89.7841 211.588 89.7989 211.588C89.8137 211.588 89.8433 211.588 89.8581 211.588C89.9174 211.588 89.9766 211.576 90.0507 211.564C90.0655 211.564 90.0803 211.564 90.0951 211.553C90.0951 211.553 90.0951 211.553 90.1099 211.541L103.011 207.349L116.282 230.109C116.401 230.31 116.653 230.44 116.919 230.44C116.949 230.44 116.978 230.44 116.993 230.44C117.304 230.405 117.541 230.227 117.601 229.99L128.206 189.515L143.403 190.462C143.699 190.486 143.98 190.332 144.084 190.107L162.436 153.622L168.908 165.097C169.027 165.322 169.308 165.452 169.605 165.428C169.901 165.405 170.153 165.227 170.212 164.99L184.505 117.563L191.259 118.451C191.481 118.475 191.704 118.416 191.852 118.297C192.015 118.191 192.104 118.001 192.074 117.824L187.66 89.2608L195.792 85.0569C195.955 84.974 196.073 84.8437 196.103 84.6898C196.147 84.5595 196.103 84.4056 195.999 84.2753Z" fill="#00C2CB"/>
<path d="M187.305 88.1121L178.714 65.2572L194.459 84.4174L187.305 88.1121ZM190.593 117.231L184.342 116.414L146.928 80.0951L186.283 89.4147L190.593 117.231ZM169.338 163.178L163.058 152.059L156.081 115.195L183.128 117.409L169.338 163.178ZM142.988 189.313L128.976 188.449L159.814 155.86L142.988 189.313ZM116.667 228.143L104.092 206.555L115.231 163.628L126.947 188.958L116.667 228.143ZM64.1598 159.034L71.3434 181.131L62.723 187.596L64.1598 159.034ZM59.9977 93.7252H89.0139L99.6339 110.257L96.553 122.146L77.1793 108.634L59.9977 93.7252ZM11.5633 92.991L10.6597 90.0542L31.6035 87.8279L55.1986 93.0265L20.4207 97.6567L11.5633 92.991ZM2.45404 78.9938L8.28986 76.3767L14.0516 79.2899L9.48962 88.7042L1.44684 83.9674L2.45404 78.9938ZM71.4323 16.8236L85.4146 19.3696V25.0656L74.365 25.7643L71.4323 16.8236ZM76.9867 3.75009L83.3854 11.9092C83.4002 11.921 83.415 11.9329 83.4298 11.9566L87.2068 15.7697L85.7108 18.2802L71.4027 15.6749L76.9867 3.75009ZM105.588 1.45275L111.602 16.7289L93.6944 8.20266L105.588 1.45275ZM148.172 44.9127L116.904 29.3287L154.63 41.6206L148.172 44.9127ZM175.47 61.7638L145.165 78.2715L133.242 61.7638L148.32 46.3456L175.47 61.7638ZM176.314 62.6519L185.883 88.1595L146.557 78.8636L176.314 62.6519ZM155.519 114.034L133.286 100.499L145.121 80.0833L182.372 116.237L155.519 114.034ZM134.234 102.465L154.63 114.875L160.984 148.471L134.234 102.465ZM119.985 139.068L126.339 184.458L115.749 161.556L119.985 139.068ZM114.757 159.424L98.3601 124.526L119.319 135.077L114.757 159.424ZM74.8983 156.298L88.0067 206.638L72.8246 181.202L74.8983 156.298ZM73.8614 152.189L71.7137 177.862L64.3819 155.315L75.4167 133.573L73.8614 152.189ZM114.105 161.982L90.0803 209.137L75.4611 152.994L114.105 161.982ZM112.698 160.49L75.2834 151.81L76.9867 131.442L112.698 160.49ZM96.3901 123.508L113.246 159.353L77.3274 130.151L89.4434 118.652L96.3901 123.508ZM132.575 102.251L160.91 150.981L120.904 134.521L132.575 102.251ZM100.952 110.6L131.375 101.576L119.659 133.94L97.7676 122.916L100.952 110.6ZM129.954 100.807L100.7 109.487L90.7172 93.9502L129.954 100.807ZM118.282 76.7557L131.227 99.8949L91.0875 92.8726L118.282 76.7557ZM61.0197 79.6096H91.9021L58.3535 92.5765L33.9734 87.2003L61.0197 79.6096ZM15.5032 79.3846L38.9354 62.5809L56.7539 58.9454C56.7687 58.9454 56.7687 58.9336 56.7835 58.9336H56.7983L66.7518 56.2928L60.3087 78.6386L31.4999 86.7266L10.8819 88.9055L15.5032 79.3846ZM14.8367 78.3544L9.65254 75.7491L33.3958 65.0558L14.8367 78.3544ZM62.9304 42.8404L46.519 46.2627L69.7438 28.5945L62.9304 42.8404ZM104.714 37.4996L95.5014 44.3324L87.0143 29.9682L111.646 19.0973L104.714 37.4996ZM125.703 44.8772L106.151 37.4996L110.032 27.1971L145.728 45.0074L125.703 44.8772ZM95.6199 79.2307C95.6347 79.207 95.6347 79.1833 95.6347 79.1596C95.6347 79.1478 95.6495 79.1359 95.6495 79.1122C95.6495 79.0649 95.6495 79.0057 95.6347 78.9465L91.9318 63.5282L117.319 75.9504L90.732 91.7002L95.6199 79.2307ZM90.3469 62.8177L94.1091 78.4965H61.7603L68.1885 56.1981L90.3469 62.8177ZM90.8801 61.7875L69.5068 55.4047L95.4273 45.8127L123.096 45.9785L90.8801 61.7875ZM105.44 38.4707L122.385 44.8535L97.0418 44.7114L105.44 38.4707ZM56.0429 51.331L46.0894 47.5061L63.508 43.8588L92.5687 45.6469L67.6701 54.8599L56.0429 51.331ZM56.8872 57.7375L54.8728 55.0731L56.1466 52.5626L65.6261 55.4283L56.8872 57.7375ZM131.864 61.373L118.4 75.1689L92.2873 62.4033L125.732 45.9903L146.78 46.1206L131.864 61.373ZM132.427 99.3383L119.363 75.986L132.338 62.6993L144.173 79.0767L132.427 99.3383ZM92.7316 9.0316L111.394 17.9367L86.7921 28.7958V19.0499L92.7316 9.0316ZM85.4146 26.1906V29.7432C85.4146 29.7432 85.4146 29.755 85.4146 29.7668C85.4146 29.7905 85.4146 29.8142 85.4294 29.8379C85.4294 29.8497 85.4294 29.8734 85.4442 29.8853C85.4442 29.909 85.459 29.9326 85.4739 29.9445C85.4739 29.9445 85.4739 29.9563 85.4887 29.9682L94.1387 44.6285L64.4412 42.8048L71.9804 27.0314L85.4146 26.1906ZM44.5194 48.1337L54.8876 52.1244L53.4509 54.9191C53.3768 55.0731 53.3916 55.2626 53.5101 55.4165L55.4949 58.0454L39.6019 61.2901L44.5194 48.1337ZM61.464 92.6002L93.8129 80.107L88.9398 92.6002H61.464ZM77.3866 110.245L88.3918 117.918L77.1052 128.623L77.3866 110.245ZM102.759 206.224L91.1319 210.013L112.816 167.441L102.759 206.224ZM120.904 135.776L161.34 152.402L128.146 187.478L120.904 135.776ZM195.999 84.2753L177.277 61.4559C177.262 61.4559 177.262 61.4441 177.247 61.4441C177.218 61.3967 177.159 61.3612 177.114 61.3256C177.099 61.3256 177.099 61.3138 177.084 61.3138L149.431 45.5995L156.511 41.9759C156.718 41.8693 156.852 41.668 156.822 41.4548C156.807 41.2535 156.629 41.0759 156.392 40.993L110.476 26.0248L113.453 18.1025C113.468 18.0552 113.483 18.0078 113.483 17.9604C113.483 17.9367 113.483 17.9249 113.483 17.9131C113.468 17.8775 113.468 17.8302 113.453 17.7946V17.7828L106.625 0.386979C106.551 0.221193 106.403 0.0909293 106.181 0.0317203C105.988 -0.0274917 105.751 -0.00380477 105.559 0.102772L92.0355 7.7882C92.0206 7.7882 92.0206 7.7882 92.0206 7.7882C91.9762 7.81188 91.9466 7.8474 91.9021 7.87109C91.8873 7.88293 91.8873 7.89477 91.8725 7.90661C91.8577 7.91846 91.8429 7.94214 91.8281 7.95398C91.8133 7.96582 91.8133 7.97766 91.8133 7.98951L91.7985 8.00135L87.8585 14.6565L84.5407 11.2816L77.4015 2.21064C77.2681 2.02117 77.0163 1.93828 76.7497 1.96196C76.4831 1.98564 76.2609 2.1159 76.1721 2.31722L69.8327 15.8762C69.8327 15.8881 69.8327 15.8881 69.8178 15.8999C69.8178 15.9118 69.803 15.9355 69.803 15.9473C69.7882 15.9828 69.7882 16.0065 69.7882 16.0302C69.7882 16.042 69.7882 16.042 69.7882 16.0539C69.7882 16.1012 69.7882 16.1605 69.803 16.2078V16.2197L72.9727 25.8472L71.4323 25.9537H71.4175C71.2842 25.9537 71.1361 26.0011 71.0324 26.084C71.0324 26.084 71.0176 26.084 71.0176 26.0958L43.6011 46.9377C43.6011 46.9495 43.5862 46.9614 43.5714 46.9732C43.5566 46.985 43.5418 46.9969 43.527 47.0087C43.527 47.0324 43.4974 47.0561 43.4826 47.0916C43.4677 47.1153 43.4529 47.1271 43.4529 47.139C43.4381 47.1508 43.4381 47.1627 43.4233 47.1745L38.0022 61.6927L1.49127 78.1649C1.29872 78.2478 1.16542 78.3899 1.13579 78.5557L0.0101006 84.1214C-0.0343356 84.3345 0.0693466 84.5477 0.291524 84.6661L9.19338 89.9121L10.2746 93.4647C10.3191 93.6068 10.4228 93.7252 10.5709 93.7963L19.8875 98.7107C20.0356 98.7817 20.2281 98.8172 20.3911 98.7936L58.1758 93.7489L76.0091 109.25L75.6981 130.056L63.0044 155.078C62.9748 155.138 62.96 155.185 62.96 155.244C62.96 155.256 62.96 155.256 62.96 155.256L61.2567 188.899C61.2418 189.124 61.4048 189.337 61.6714 189.432C61.9232 189.515 62.2194 189.479 62.4268 189.337L71.9063 182.232L89.236 211.268C89.236 211.28 89.2508 211.28 89.2508 211.292C89.2657 211.304 89.2657 211.316 89.2805 211.316C89.3101 211.363 89.3545 211.41 89.399 211.446H89.4138C89.4582 211.482 89.5175 211.505 89.5619 211.529C89.5619 211.529 89.5767 211.541 89.5915 211.541C89.6508 211.564 89.71 211.576 89.7693 211.576C89.7841 211.576 89.7841 211.588 89.7989 211.588C89.8137 211.588 89.8433 211.588 89.8581 211.588C89.9174 211.588 89.9766 211.576 90.0507 211.564C90.0655 211.564 90.0803 211.564 90.0951 211.553C90.0951 211.553 90.0951 211.553 90.1099 211.541L103.011 207.349L116.282 230.109C116.401 230.31 116.653 230.44 116.919 230.44C116.949 230.44 116.978 230.44 116.993 230.44C117.304 230.405 117.541 230.227 117.601 229.99L128.206 189.515L143.403 190.462C143.699 190.486 143.98 190.332 144.084 190.107L162.436 153.622L168.908 165.097C169.027 165.322 169.308 165.452 169.605 165.428C169.901 165.405 170.153 165.227 170.212 164.99L184.505 117.563L191.259 118.451C191.481 118.475 191.704 118.416 191.852 118.297C192.015 118.191 192.104 118.001 192.074 117.824L187.66 89.2608L195.792 85.0569C195.955 84.974 196.073 84.8437 196.103 84.6898C196.147 84.5595 196.103 84.4056 195.999 84.2753Z" fill="#00C2CB"/>
<path d="M195.199 88.1121L186.609 65.2572L202.339 84.4174L195.199 88.1121ZM198.473 117.231L192.237 116.414L154.823 80.0951L194.177 89.4147L198.473 117.231ZM177.233 163.178L170.953 152.059L163.976 115.195L191.008 117.409L177.233 163.178ZM150.883 189.313L136.871 188.449L167.694 155.86L150.883 189.313ZM124.547 228.143L111.972 206.555L123.125 163.628L134.827 188.958L124.547 228.143ZM72.0546 159.034L79.2235 181.131L70.603 187.596L72.0546 159.034ZM67.8925 93.7252H96.9087L107.514 110.257L104.448 122.146L85.0741 108.634L67.8925 93.7252ZM19.4433 92.991L18.5546 90.0542L39.4836 87.8279L63.0935 93.0265L28.3155 97.6567L19.4433 92.991ZM10.3341 78.9938L16.1699 76.3767L21.9465 79.2899L17.3844 88.7042L9.32686 83.9674L10.3341 78.9938ZM79.3271 16.8236L93.2946 19.3696V25.0656L82.2599 25.7643L79.3271 16.8236ZM84.8667 3.75009L91.2802 11.9092C91.295 11.921 91.3098 11.9329 91.3247 11.9566L95.0868 15.7697L93.6057 18.2802L79.2975 15.6749L84.8667 3.75009ZM113.483 1.45275L119.482 16.7289L101.589 8.20266L113.483 1.45275ZM156.067 44.9127L124.799 29.3287L162.51 41.6206L156.067 44.9127ZM183.365 61.7638L153.06 78.2715L141.137 61.7638L156.215 46.3456L183.365 61.7638ZM184.194 62.6519L193.763 88.1595L154.452 78.8636L184.194 62.6519ZM163.413 114.034L141.181 100.499L153.001 80.0833L190.267 116.237L163.413 114.034ZM142.114 102.465L162.51 114.875L168.864 148.471L142.114 102.465ZM127.865 139.068L134.219 184.458L123.644 161.556L127.865 139.068ZM122.651 159.424L106.255 124.526L127.214 135.077L122.651 159.424ZM82.7931 156.298L95.9015 206.638L80.7194 181.202L82.7931 156.298ZM81.7563 152.189L79.6086 177.862L72.2619 155.315L83.3115 133.573L81.7563 152.189ZM122 161.982L97.9603 209.137L83.3559 152.994L122 161.982ZM120.578 160.49L83.1634 151.81L84.8667 131.442L120.578 160.49ZM104.285 123.508L121.126 159.353L85.2222 130.151L97.3234 118.652L104.285 123.508ZM140.455 102.251L168.79 150.981L128.798 134.521L140.455 102.251ZM108.847 110.6L139.255 101.576L127.554 133.94L105.662 122.916L108.847 110.6ZM137.848 100.807L108.58 109.487L98.612 93.9502L137.848 100.807ZM126.162 76.7557L139.122 99.8949L98.9675 92.8726L126.162 76.7557ZM68.8997 79.6096H99.797L66.2484 92.5765L41.8683 87.2003L68.8997 79.6096ZM23.398 79.3846L46.8154 62.5809L64.6487 58.9454C64.6635 58.9454 64.6635 58.9336 64.6783 58.9336H64.6931L74.6318 56.2928L68.2035 78.6386L39.3799 86.7266L18.7767 88.9055L23.398 79.3846ZM22.7315 78.3544L17.5474 75.7491L41.2906 65.0558L22.7315 78.3544ZM70.8252 42.8404L54.4138 46.2627L77.6386 28.5945L70.8252 42.8404ZM112.594 37.4996L103.396 44.3324L94.9091 29.9682L119.526 19.0973L112.594 37.4996ZM133.583 44.8772L114.046 37.4996L117.927 27.1971L153.608 45.0074L133.583 44.8772ZM103.5 79.2307C103.515 79.207 103.515 79.1833 103.515 79.1596C103.515 79.1478 103.53 79.1359 103.53 79.1122C103.53 79.0649 103.53 79.0057 103.515 78.9465L99.8266 63.5282L125.199 75.9504L98.6268 91.7002L103.5 79.2307ZM98.2417 62.8177L102.004 78.4965H69.6551L76.0834 56.1981L98.2417 62.8177ZM98.775 61.7875L77.3868 55.4047L103.322 45.8127L130.99 45.9785L98.775 61.7875ZM113.335 38.4707L130.265 44.8535L104.937 44.7114L113.335 38.4707ZM63.9377 51.331L53.9843 47.5061L71.4029 43.8588L100.464 45.6469L75.565 54.8599L63.9377 51.331ZM64.782 57.7375L62.7528 55.0731L64.0414 52.5626L73.5061 55.4283L64.782 57.7375ZM139.759 61.373L126.28 75.1689L100.167 62.4033L133.612 45.9903L154.66 46.1206L139.759 61.373ZM140.322 99.3383L127.258 75.986L140.233 62.6993L152.068 79.0767L140.322 99.3383ZM100.612 9.0316L119.289 17.9367L94.6869 28.7958V19.0499L100.612 9.0316ZM93.2946 26.1906V29.7432C93.2946 29.7432 93.2946 29.755 93.2946 29.7668C93.2946 29.7905 93.2946 29.8142 93.3094 29.8379C93.3094 29.8497 93.3094 29.8734 93.3242 29.8853C93.3242 29.909 93.3391 29.9326 93.3539 29.9445C93.3539 29.9445 93.3539 29.9563 93.3687 29.9682L102.034 44.6285L72.3212 42.8048L79.8752 27.0314L93.2946 26.1906ZM52.3994 48.1337L62.7676 52.1244L61.3457 54.9191C61.2716 55.0731 61.2864 55.2626 61.4049 55.4165L63.3897 58.0454L47.4967 61.2901L52.3994 48.1337ZM69.3588 92.6002L101.708 80.107L96.8198 92.6002H69.3588ZM85.2815 110.245L96.2718 117.918L85 128.623L85.2815 110.245ZM110.654 206.224L99.0119 210.013L120.711 167.441L110.654 206.224ZM128.798 135.776L169.234 152.402L136.041 187.478L128.798 135.776ZM203.894 84.2753L185.172 61.4559C185.157 61.4559 185.157 61.4441 185.142 61.4441C185.113 61.3967 185.053 61.3612 185.009 61.3256C184.994 61.3256 184.994 61.3138 184.979 61.3138L157.326 45.5995L164.391 41.9759C164.613 41.8693 164.746 41.668 164.717 41.4548C164.702 41.2535 164.524 41.0759 164.272 40.993L118.356 26.0248L121.348 18.1025C121.363 18.0552 121.378 18.0078 121.378 17.9604C121.378 17.9367 121.378 17.9249 121.378 17.9131C121.363 17.8775 121.363 17.8302 121.348 17.7946V17.7828L114.52 0.386979C114.446 0.221193 114.283 0.0909293 114.075 0.0317203C113.868 -0.0274917 113.646 -0.00380477 113.453 0.102772L99.9303 7.7882C99.9155 7.7882 99.9155 7.7882 99.9155 7.7882C99.871 7.81188 99.8414 7.8474 99.797 7.87109C99.7822 7.88293 99.7822 7.89477 99.7673 7.90661C99.7525 7.91846 99.7377 7.94214 99.7229 7.95398C99.7081 7.96582 99.7081 7.97766 99.7081 7.98951L99.6933 8.00135L95.7534 14.6565L92.4355 11.2816L85.2815 2.21064C85.163 2.02117 84.8964 1.93828 84.6446 1.96196C84.378 1.98564 84.141 2.1159 84.0669 2.31722L77.7275 15.8762C77.7275 15.8881 77.7275 15.8881 77.7127 15.8999C77.7127 15.9118 77.6979 15.9355 77.6979 15.9473C77.683 15.9828 77.683 16.0065 77.683 16.0302C77.683 16.042 77.683 16.042 77.683 16.0539C77.683 16.1012 77.683 16.1605 77.6979 16.2078V16.2197L80.8528 25.8472L79.3271 25.9537H79.3123C79.1642 25.9537 79.0309 26.0011 78.9272 26.084C78.9272 26.084 78.9124 26.084 78.9124 26.0958L51.4959 46.9377C51.4959 46.9495 51.4811 46.9614 51.4663 46.9732C51.4514 46.985 51.4366 46.9969 51.4218 47.0087C51.407 47.0324 51.3774 47.0561 51.3626 47.0916C51.3478 47.1153 51.333 47.1271 51.333 47.139C51.3181 47.1508 51.3181 47.1627 51.3033 47.1745L45.897 61.6927L9.37129 78.1649C9.19355 78.2478 9.06024 78.3899 9.03062 78.5557L7.90493 84.1214C7.86049 84.3345 7.96418 84.5477 8.17154 84.6661L17.0882 89.9121L18.1695 93.4647C18.2139 93.6068 18.3028 93.7252 18.4509 93.7963L27.7823 98.7107C27.9304 98.7817 28.1081 98.8172 28.2859 98.7936L66.0558 93.7489L83.904 109.25L83.5781 130.056L70.8993 155.078C70.8696 155.138 70.8548 155.185 70.8548 155.244C70.8548 155.256 70.8548 155.256 70.8548 155.256L69.1515 188.899C69.1367 189.124 69.2996 189.337 69.5514 189.432C69.818 189.515 70.0994 189.479 70.3216 189.337L79.7863 182.232L97.1309 211.268C97.1309 211.28 97.1457 211.28 97.1457 211.292C97.1605 211.304 97.1605 211.316 97.1753 211.316C97.2049 211.363 97.2345 211.41 97.279 211.446H97.2938C97.3382 211.482 97.3975 211.505 97.4567 211.529C97.4567 211.529 97.4715 211.541 97.4863 211.541C97.5456 211.564 97.6048 211.576 97.6641 211.576C97.6789 211.576 97.6789 211.588 97.6937 211.588C97.7085 211.588 97.7381 211.588 97.753 211.588C97.7974 211.588 97.8566 211.576 97.9307 211.564C97.9455 211.564 97.9603 211.564 97.9751 211.553C97.9751 211.553 97.9899 211.553 98.0048 211.541L110.891 207.349L124.177 230.109C124.296 230.31 124.533 230.44 124.814 230.44C124.844 230.44 124.873 230.44 124.888 230.44C125.184 230.405 125.436 230.227 125.495 229.99L136.101 189.515L151.283 190.462C151.594 190.486 151.86 190.332 151.979 190.107L170.33 153.622L176.788 165.097C176.922 165.322 177.203 165.452 177.499 165.428C177.796 165.405 178.033 165.227 178.107 164.99L192.4 117.563L199.154 118.451C199.376 118.475 199.584 118.416 199.747 118.297C199.91 118.191 199.984 118.001 199.969 117.824L195.54 89.2608L203.687 85.0569C203.849 84.974 203.953 84.8437 203.983 84.6898C204.027 84.5595 203.983 84.4056 203.894 84.2753Z" fill="#FF007A"/>
<path d="M192.355 88.1121L183.765 65.2572L199.495 84.4174L192.355 88.1121ZM195.629 117.231L189.393 116.414L151.979 80.0951L191.333 89.4147L195.629 117.231ZM174.389 163.178L168.109 152.059L161.132 115.195L188.164 117.409L174.389 163.178ZM148.039 189.313L134.027 188.449L164.85 155.86L148.039 189.313ZM121.703 228.143L109.128 206.555L120.281 163.628L131.983 188.958L121.703 228.143ZM69.2106 159.034L76.3795 181.131L67.759 187.596L69.2106 159.034ZM65.0485 93.7252H94.0647L104.67 110.257L101.604 122.146L82.2301 108.634L65.0485 93.7252ZM16.5993 92.991L15.7106 90.0542L36.6396 87.8279L60.2495 93.0265L25.4715 97.6567L16.5993 92.991ZM7.49006 78.9938L13.3259 76.3767L19.1025 79.2899L14.5404 88.7042L6.48286 83.9674L7.49006 78.9938ZM76.4832 16.8236L90.4506 19.3696V25.0656L79.4159 25.7643L76.4832 16.8236ZM82.0227 3.75009L88.4362 11.9092C88.451 11.921 88.4658 11.9329 88.4807 11.9566L92.2428 15.7697L90.7617 18.2802L76.4535 15.6749L82.0227 3.75009ZM110.639 1.45275L116.638 16.7289L98.7452 8.20266L110.639 1.45275ZM153.223 44.9127L121.955 29.3287L159.666 41.6206L153.223 44.9127ZM180.521 61.7638L150.216 78.2715L138.293 61.7638L153.371 46.3456L180.521 61.7638ZM181.35 62.6519L190.919 88.1595L151.608 78.8636L181.35 62.6519ZM160.569 114.034L138.337 100.499L150.157 80.0833L187.423 116.237L160.569 114.034ZM139.27 102.465L159.666 114.875L166.02 148.471L139.27 102.465ZM125.021 139.068L131.375 184.458L120.8 161.556L125.021 139.068ZM119.807 159.424L103.411 124.526L124.37 135.077L119.807 159.424ZM79.9491 156.298L93.0575 206.638L77.8755 181.202L79.9491 156.298ZM78.9123 152.189L76.7646 177.862L69.418 155.315L80.4675 133.573L78.9123 152.189ZM119.156 161.982L95.1163 209.137L80.5119 152.994L119.156 161.982ZM117.734 160.49L80.3194 151.81L82.0227 131.442L117.734 160.49ZM101.441 123.508L118.282 159.353L82.3782 130.151L94.4794 118.652L101.441 123.508ZM137.611 102.251L165.946 150.981L125.954 134.521L137.611 102.251ZM106.003 110.6L136.411 101.576L124.71 133.94L102.818 122.916L106.003 110.6ZM135.004 100.807L105.736 109.487L95.768 93.9502L135.004 100.807ZM123.318 76.7557L136.278 99.8949L96.1235 92.8726L123.318 76.7557ZM66.0557 79.6096H96.953L63.4044 92.5765L39.0243 87.2003L66.0557 79.6096ZM20.554 79.3846L43.9714 62.5809L61.8047 58.9454C61.8195 58.9454 61.8195 58.9336 61.8343 58.9336H61.8492L71.7878 56.2928L65.3595 78.6386L36.5359 86.7266L15.9328 88.9055L20.554 79.3846ZM19.8875 78.3544L14.7034 75.7491L38.4466 65.0558L19.8875 78.3544ZM67.9812 42.8404L51.5698 46.2627L74.7946 28.5945L67.9812 42.8404ZM109.75 37.4996L100.552 44.3324L92.0651 29.9682L116.682 19.0973L109.75 37.4996ZM130.739 44.8772L111.202 37.4996L115.083 27.1971L150.764 45.0074L130.739 44.8772ZM100.656 79.2307C100.671 79.207 100.671 79.1833 100.671 79.1596C100.671 79.1478 100.686 79.1359 100.686 79.1122C100.686 79.0649 100.686 79.0057 100.671 78.9465L96.9826 63.5282L122.355 75.9504L95.7829 91.7002L100.656 79.2307ZM95.3977 62.8177L99.1599 78.4965H66.8111L73.2394 56.1981L95.3977 62.8177ZM95.931 61.7875L74.5428 55.4047L100.478 45.8127L128.147 45.9785L95.931 61.7875ZM110.491 38.4707L127.421 44.8535L102.093 44.7114L110.491 38.4707ZM61.0938 51.331L51.1403 47.5061L68.5589 43.8588L97.6195 45.6469L72.721 54.8599L61.0938 51.331ZM61.938 57.7375L59.9088 55.0731L61.1974 52.5626L70.6621 55.4283L61.938 57.7375ZM136.915 61.373L123.436 75.1689L97.3233 62.4033L130.768 45.9903L151.816 46.1206L136.915 61.373ZM137.478 99.3383L124.414 75.986L137.389 62.6993L149.224 79.0767L137.478 99.3383ZM97.7676 9.0316L116.445 17.9367L91.8429 28.7958V19.0499L97.7676 9.0316ZM90.4506 26.1906V29.7432C90.4506 29.7432 90.4506 29.755 90.4506 29.7668C90.4506 29.7905 90.4506 29.8142 90.4654 29.8379C90.4654 29.8497 90.4654 29.8734 90.4802 29.8853C90.4802 29.909 90.4951 29.9326 90.5099 29.9445C90.5099 29.9445 90.5099 29.9563 90.5247 29.9682L99.1896 44.6285L69.4772 42.8048L77.0312 27.0314L90.4506 26.1906ZM49.5554 48.1337L59.9236 52.1244L58.5017 54.9191C58.4276 55.0731 58.4425 55.2626 58.5609 55.4165L60.5457 58.0454L44.6527 61.2901L49.5554 48.1337ZM66.5148 92.6002L98.8637 80.107L93.9758 92.6002H66.5148ZM82.4375 110.245L93.4278 117.918L82.156 128.623L82.4375 110.245ZM107.81 206.224L96.168 210.013L117.867 167.441L107.81 206.224ZM125.954 135.776L166.39 152.402L133.197 187.478L125.954 135.776ZM201.05 84.2753L182.328 61.4559C182.313 61.4559 182.313 61.4441 182.298 61.4441C182.269 61.3967 182.209 61.3612 182.165 61.3256C182.15 61.3256 182.15 61.3138 182.135 61.3138L154.482 45.5995L161.547 41.9759C161.769 41.8693 161.902 41.668 161.873 41.4548C161.858 41.2535 161.68 41.0759 161.428 40.993L115.512 26.0248L118.504 18.1025C118.519 18.0552 118.534 18.0078 118.534 17.9604C118.534 17.9367 118.534 17.9249 118.534 17.9131C118.519 17.8775 118.519 17.8302 118.504 17.7946V17.7828L111.676 0.386979C111.602 0.221193 111.439 0.0909293 111.231 0.0317203C111.024 -0.0274917 110.802 -0.00380477 110.609 0.102772L97.0863 7.7882C97.0715 7.7882 97.0715 7.7882 97.0715 7.7882C97.027 7.81188 96.9974 7.8474 96.953 7.87109C96.9382 7.88293 96.9382 7.89477 96.9234 7.90661C96.9085 7.91846 96.8937 7.94214 96.8789 7.95398C96.8641 7.96582 96.8641 7.97766 96.8641 7.98951L96.8493 8.00135L92.9094 14.6565L89.5915 11.2816L82.4375 2.21064C82.319 2.02117 82.0524 1.93828 81.8006 1.96196C81.534 1.98564 81.297 2.1159 81.2229 2.31722L74.8835 15.8762C74.8835 15.8881 74.8835 15.8881 74.8687 15.8999C74.8687 15.9118 74.8539 15.9355 74.8539 15.9473C74.839 15.9828 74.839 16.0065 74.839 16.0302C74.839 16.042 74.839 16.042 74.839 16.0539C74.839 16.1012 74.839 16.1605 74.8539 16.2078V16.2197L78.0088 25.8472L76.4832 25.9537H76.4683C76.3202 25.9537 76.1869 26.0011 76.0832 26.084C76.0832 26.084 76.0684 26.084 76.0684 26.0958L48.6519 46.9377C48.6519 46.9495 48.6371 46.9614 48.6223 46.9732C48.6075 46.985 48.5926 46.9969 48.5778 47.0087C48.563 47.0324 48.5334 47.0561 48.5186 47.0916C48.5038 47.1153 48.489 47.1271 48.489 47.139C48.4741 47.1508 48.4742 47.1627 48.4593 47.1745L43.0531 61.6927L6.5273 78.1649C6.34955 78.2478 6.21625 78.3899 6.18663 78.5557L5.06093 84.1214C5.0165 84.3345 5.12018 84.5477 5.32755 84.6661L14.2442 89.9121L15.3255 93.4647C15.3699 93.6068 15.4588 93.7252 15.6069 93.7963L24.9383 98.7107C25.0864 98.7817 25.2642 98.8172 25.4419 98.7936L63.2118 93.7489L81.06 109.25L80.7341 130.056L68.0553 155.078C68.0256 155.138 68.0108 155.185 68.0108 155.244C68.0108 155.256 68.0108 155.256 68.0108 155.256L66.3075 188.899C66.2927 189.124 66.4556 189.337 66.7074 189.432C66.974 189.515 67.2554 189.479 67.4776 189.337L76.9423 182.232L94.2869 211.268C94.2869 211.28 94.3017 211.28 94.3017 211.292C94.3165 211.304 94.3165 211.316 94.3313 211.316C94.3609 211.363 94.3905 211.41 94.435 211.446H94.4498C94.4942 211.482 94.5535 211.505 94.6127 211.529C94.6127 211.529 94.6275 211.541 94.6423 211.541C94.7016 211.564 94.7608 211.576 94.8201 211.576C94.8349 211.576 94.8349 211.588 94.8497 211.588C94.8645 211.588 94.8941 211.588 94.909 211.588C94.9534 211.588 95.0126 211.576 95.0867 211.564C95.1015 211.564 95.1163 211.564 95.1311 211.553C95.1311 211.553 95.1459 211.553 95.1608 211.541L108.047 207.349L121.333 230.109C121.452 230.31 121.689 230.44 121.97 230.44C122 230.44 122.029 230.44 122.044 230.44C122.34 230.405 122.592 230.227 122.651 229.99L133.257 189.515L148.439 190.462C148.75 190.486 149.016 190.332 149.135 190.107L167.486 153.622L173.944 165.097C174.078 165.322 174.359 165.452 174.655 165.428C174.952 165.405 175.189 165.227 175.263 164.99L189.556 117.563L196.31 118.451C196.532 118.475 196.74 118.416 196.903 118.297C197.066 118.191 197.14 118.001 197.125 117.824L192.696 89.2608L200.843 85.0569C201.005 84.974 201.109 84.8437 201.139 84.6898C201.183 84.5595 201.139 84.4056 201.05 84.2753Z" fill="white"/>
<path d="M192.355 88.1121L183.765 65.2572L199.495 84.4174L192.355 88.1121ZM195.629 117.231L189.393 116.414L151.979 80.0951L191.333 89.4147L195.629 117.231ZM174.389 163.178L168.109 152.059L161.132 115.195L188.164 117.409L174.389 163.178ZM148.039 189.313L134.027 188.449L164.85 155.86L148.039 189.313ZM121.703 228.143L109.128 206.555L120.281 163.628L131.983 188.958L121.703 228.143ZM69.2106 159.034L76.3795 181.131L67.759 187.596L69.2106 159.034ZM65.0485 93.7252H94.0647L104.67 110.257L101.604 122.146L82.2301 108.634L65.0485 93.7252ZM16.5993 92.991L15.7106 90.0542L36.6396 87.8279L60.2495 93.0265L25.4715 97.6567L16.5993 92.991ZM7.49006 78.9938L13.3259 76.3767L19.1025 79.2899L14.5404 88.7042L6.48286 83.9674L7.49006 78.9938ZM76.4832 16.8236L90.4506 19.3696V25.0656L79.4159 25.7643L76.4832 16.8236ZM82.0227 3.75009L88.4362 11.9092C88.451 11.921 88.4658 11.9329 88.4807 11.9566L92.2428 15.7697L90.7617 18.2802L76.4535 15.6749L82.0227 3.75009ZM110.639 1.45275L116.638 16.7289L98.7452 8.20266L110.639 1.45275ZM153.223 44.9127L121.955 29.3287L159.666 41.6206L153.223 44.9127ZM180.521 61.7638L150.216 78.2715L138.293 61.7638L153.371 46.3456L180.521 61.7638ZM181.35 62.6519L190.919 88.1595L151.608 78.8636L181.35 62.6519ZM160.569 114.034L138.337 100.499L150.157 80.0833L187.423 116.237L160.569 114.034ZM139.27 102.465L159.666 114.875L166.02 148.471L139.27 102.465ZM125.021 139.068L131.375 184.458L120.8 161.556L125.021 139.068ZM119.807 159.424L103.411 124.526L124.37 135.077L119.807 159.424ZM79.9491 156.298L93.0575 206.638L77.8755 181.202L79.9491 156.298ZM78.9123 152.189L76.7646 177.862L69.418 155.315L80.4675 133.573L78.9123 152.189ZM119.156 161.982L95.1163 209.137L80.5119 152.994L119.156 161.982ZM117.734 160.49L80.3194 151.81L82.0227 131.442L117.734 160.49ZM101.441 123.508L118.282 159.353L82.3782 130.151L94.4794 118.652L101.441 123.508ZM137.611 102.251L165.946 150.981L125.954 134.521L137.611 102.251ZM106.003 110.6L136.411 101.576L124.71 133.94L102.818 122.916L106.003 110.6ZM135.004 100.807L105.736 109.487L95.768 93.9502L135.004 100.807ZM123.318 76.7557L136.278 99.8949L96.1235 92.8726L123.318 76.7557ZM66.0557 79.6096H96.953L63.4044 92.5765L39.0243 87.2003L66.0557 79.6096ZM20.554 79.3846L43.9714 62.5809L61.8047 58.9454C61.8195 58.9454 61.8195 58.9336 61.8343 58.9336H61.8492L71.7878 56.2928L65.3595 78.6386L36.5359 86.7266L15.9328 88.9055L20.554 79.3846ZM19.8875 78.3544L14.7034 75.7491L38.4466 65.0558L19.8875 78.3544ZM67.9812 42.8404L51.5698 46.2627L74.7946 28.5945L67.9812 42.8404ZM109.75 37.4996L100.552 44.3324L92.0651 29.9682L116.682 19.0973L109.75 37.4996ZM130.739 44.8772L111.202 37.4996L115.083 27.1971L150.764 45.0074L130.739 44.8772ZM100.656 79.2307C100.671 79.207 100.671 79.1833 100.671 79.1596C100.671 79.1478 100.686 79.1359 100.686 79.1122C100.686 79.0649 100.686 79.0057 100.671 78.9465L96.9826 63.5282L122.355 75.9504L95.7829 91.7002L100.656 79.2307ZM95.3977 62.8177L99.1599 78.4965H66.8111L73.2394 56.1981L95.3977 62.8177ZM95.931 61.7875L74.5428 55.4047L100.478 45.8127L128.147 45.9785L95.931 61.7875ZM110.491 38.4707L127.421 44.8535L102.093 44.7114L110.491 38.4707ZM61.0938 51.331L51.1403 47.5061L68.5589 43.8588L97.6195 45.6469L72.721 54.8599L61.0938 51.331ZM61.938 57.7375L59.9088 55.0731L61.1974 52.5626L70.6621 55.4283L61.938 57.7375ZM136.915 61.373L123.436 75.1689L97.3233 62.4033L130.768 45.9903L151.816 46.1206L136.915 61.373ZM137.478 99.3383L124.414 75.986L137.389 62.6993L149.224 79.0767L137.478 99.3383ZM97.7676 9.0316L116.445 17.9367L91.8429 28.7958V19.0499L97.7676 9.0316ZM90.4506 26.1906V29.7432C90.4506 29.7432 90.4506 29.755 90.4506 29.7668C90.4506 29.7905 90.4506 29.8142 90.4654 29.8379C90.4654 29.8497 90.4654 29.8734 90.4802 29.8853C90.4802 29.909 90.4951 29.9326 90.5099 29.9445C90.5099 29.9445 90.5099 29.9563 90.5247 29.9682L99.1896 44.6285L69.4772 42.8048L77.0312 27.0314L90.4506 26.1906ZM49.5554 48.1337L59.9236 52.1244L58.5017 54.9191C58.4276 55.0731 58.4425 55.2626 58.5609 55.4165L60.5457 58.0454L44.6527 61.2901L49.5554 48.1337ZM66.5148 92.6002L98.8637 80.107L93.9758 92.6002H66.5148ZM82.4375 110.245L93.4278 117.918L82.156 128.623L82.4375 110.245ZM107.81 206.224L96.168 210.013L117.867 167.441L107.81 206.224ZM125.954 135.776L166.39 152.402L133.197 187.478L125.954 135.776ZM201.05 84.2753L182.328 61.4559C182.313 61.4559 182.313 61.4441 182.298 61.4441C182.269 61.3967 182.209 61.3612 182.165 61.3256C182.15 61.3256 182.15 61.3138 182.135 61.3138L154.482 45.5995L161.547 41.9759C161.769 41.8693 161.902 41.668 161.873 41.4548C161.858 41.2535 161.68 41.0759 161.428 40.993L115.512 26.0248L118.504 18.1025C118.519 18.0552 118.534 18.0078 118.534 17.9604C118.534 17.9367 118.534 17.9249 118.534 17.9131C118.519 17.8775 118.519 17.8302 118.504 17.7946V17.7828L111.676 0.386979C111.602 0.221193 111.439 0.0909293 111.231 0.0317203C111.024 -0.0274917 110.802 -0.00380477 110.609 0.102772L97.0863 7.7882C97.0715 7.7882 97.0715 7.7882 97.0715 7.7882C97.027 7.81188 96.9974 7.8474 96.953 7.87109C96.9382 7.88293 96.9382 7.89477 96.9234 7.90661C96.9085 7.91846 96.8937 7.94214 96.8789 7.95398C96.8641 7.96582 96.8641 7.97766 96.8641 7.98951L96.8493 8.00135L92.9094 14.6565L89.5915 11.2816L82.4375 2.21064C82.319 2.02117 82.0524 1.93828 81.8006 1.96196C81.534 1.98564 81.297 2.1159 81.2229 2.31722L74.8835 15.8762C74.8835 15.8881 74.8835 15.8881 74.8687 15.8999C74.8687 15.9118 74.8539 15.9355 74.8539 15.9473C74.839 15.9828 74.839 16.0065 74.839 16.0302C74.839 16.042 74.839 16.042 74.839 16.0539C74.839 16.1012 74.839 16.1605 74.8539 16.2078V16.2197L78.0088 25.8472L76.4832 25.9537H76.4683C76.3202 25.9537 76.1869 26.0011 76.0832 26.084C76.0832 26.084 76.0684 26.084 76.0684 26.0958L48.6519 46.9377C48.6519 46.9495 48.6371 46.9614 48.6223 46.9732C48.6075 46.985 48.5926 46.9969 48.5778 47.0087C48.563 47.0324 48.5334 47.0561 48.5186 47.0916C48.5038 47.1153 48.489 47.1271 48.489 47.139C48.4741 47.1508 48.4742 47.1627 48.4593 47.1745L43.0531 61.6927L6.5273 78.1649C6.34955 78.2478 6.21625 78.3899 6.18663 78.5557L5.06093 84.1214C5.0165 84.3345 5.12018 84.5477 5.32755 84.6661L14.2442 89.9121L15.3255 93.4647C15.3699 93.6068 15.4588 93.7252 15.6069 93.7963L24.9383 98.7107C25.0864 98.7817 25.2642 98.8172 25.4419 98.7936L63.2118 93.7489L81.06 109.25L80.7341 130.056L68.0553 155.078C68.0256 155.138 68.0108 155.185 68.0108 155.244C68.0108 155.256 68.0108 155.256 68.0108 155.256L66.3075 188.899C66.2927 189.124 66.4556 189.337 66.7074 189.432C66.974 189.515 67.2554 189.479 67.4776 189.337L76.9423 182.232L94.2869 211.268C94.2869 211.28 94.3017 211.28 94.3017 211.292C94.3165 211.304 94.3165 211.316 94.3313 211.316C94.3609 211.363 94.3905 211.41 94.435 211.446H94.4498C94.4942 211.482 94.5535 211.505 94.6127 211.529C94.6127 211.529 94.6275 211.541 94.6423 211.541C94.7016 211.564 94.7608 211.576 94.8201 211.576C94.8349 211.576 94.8349 211.588 94.8497 211.588C94.8645 211.588 94.8941 211.588 94.909 211.588C94.9534 211.588 95.0126 211.576 95.0867 211.564C95.1015 211.564 95.1163 211.564 95.1311 211.553C95.1311 211.553 95.1459 211.553 95.1608 211.541L108.047 207.349L121.333 230.109C121.452 230.31 121.689 230.44 121.97 230.44C122 230.44 122.029 230.44 122.044 230.44C122.34 230.405 122.592 230.227 122.651 229.99L133.257 189.515L148.439 190.462C148.75 190.486 149.016 190.332 149.135 190.107L167.486 153.622L173.944 165.097C174.078 165.322 174.359 165.452 174.655 165.428C174.952 165.405 175.189 165.227 175.263 164.99L189.556 117.563L196.31 118.451C196.532 118.475 196.74 118.416 196.903 118.297C197.066 118.191 197.14 118.001 197.125 117.824L192.696 89.2608L200.843 85.0569C201.005 84.974 201.109 84.8437 201.139 84.6898C201.183 84.5595 201.139 84.4056 201.05 84.2753Z" fill="white"/>
</svg>
